<svg width="48" height="48" viewBox="0 0 48 48" fill="none" xmlns="http://www.w3.org/2000/svg">
<path d="M23.9993 23.9766C27.8758 23.9766 31.0305 20.8219 31.0305 16.9453C31.0305 13.0688 27.8758 9.91406 23.9993 9.91406C20.1227 9.91406 16.968 13.0688 16.968 16.9453C16.968 20.8219 20.1227 23.9766 23.9993 23.9766ZM23.9993 11.4766C27.0149 11.4766 29.468 13.9297 29.468 16.9453C29.468 19.9609 27.0149 22.4141 23.9993 22.4141C20.9836 22.4141 18.5305 19.9609 18.5305 16.9453C18.5305 13.9297 20.9836 11.4766 23.9993 11.4766Z" fill="#46C752"/>
<path d="M0.66337 21.2368C0.731504 21.357 0.830314 21.4571 0.94972 21.5266C1.06913 21.5962 1.20485 21.6329 1.34306 21.6329H14.3345L14.3688 23.3907C14.3718 23.5505 14.4239 23.7056 14.5179 23.8348C14.612 23.9641 14.7435 24.0613 14.8946 24.1134L18.0087 25.1915L19.9946 27.8212C20.091 27.9488 20.2243 28.0438 20.3765 28.0933C20.5287 28.1427 20.6923 28.1443 20.8454 28.0977L23.9993 27.1368L27.1524 28.097C27.3057 28.1429 27.4692 28.141 27.6214 28.0916C27.7735 28.0422 27.907 27.9476 28.004 27.8204L29.9907 25.1907L33.1048 24.1126C33.2558 24.0604 33.3872 23.9631 33.4812 23.8339C33.5752 23.7046 33.6273 23.5497 33.6306 23.3899L33.6642 21.6329H46.6556C46.7937 21.6328 46.9294 21.596 47.0487 21.5264C47.168 21.4568 47.2668 21.3567 47.3348 21.2365C47.4029 21.1163 47.4378 20.9801 47.4361 20.842C47.4344 20.7038 47.3961 20.5686 47.3251 20.4501L45.2227 16.9454L47.3251 13.4415C47.3963 13.323 47.4348 13.1876 47.4366 13.0494C47.4384 12.9111 47.4035 12.7748 47.3354 12.6545C47.2673 12.5341 47.1685 12.434 47.0491 12.3643C46.9296 12.2946 46.7938 12.2579 46.6556 12.2579H33.6642L33.6298 10.5001C33.6268 10.3403 33.5747 10.1852 33.4807 10.0559C33.3867 9.92668 33.2551 9.82945 33.104 9.77742L29.9899 8.6993L28.0032 6.07039C27.9068 5.94272 27.7735 5.84774 27.6213 5.79828C27.4692 5.74882 27.3055 5.74727 27.1524 5.79383L23.9993 6.75399L20.8462 5.79383C20.6931 5.74749 20.5295 5.74916 20.3774 5.79861C20.2253 5.84805 20.092 5.9429 19.9954 6.07039L18.0087 8.70008L14.8946 9.7782C14.7436 9.83043 14.6122 9.92771 14.5182 10.0569C14.4242 10.1861 14.3721 10.3411 14.3688 10.5009L14.3345 12.2579H1.34306C1.2049 12.258 1.06923 12.2947 0.949905 12.3644C0.830577 12.434 0.731849 12.5341 0.66379 12.6543C0.59573 12.7745 0.560774 12.9107 0.562484 13.0488C0.564195 13.187 0.602511 13.3222 0.673526 13.4407L2.77587 16.9454L0.673526 20.4493C0.602165 20.5679 0.563617 20.7033 0.561832 20.8417C0.560048 20.9801 0.595091 21.1164 0.66337 21.2368ZM45.2759 13.8204L43.6423 16.543C43.5694 16.6645 43.5309 16.8034 43.5309 16.945C43.5309 17.0866 43.5694 17.2255 43.6423 17.347L45.2759 20.0704H33.7118L35.5774 17.3915C35.6687 17.2605 35.7176 17.1047 35.7176 16.945C35.7176 16.7853 35.6687 16.6295 35.5774 16.4985L33.7118 13.8204H45.2759ZM15.722 14.493C15.8102 14.3663 15.8588 14.2162 15.8618 14.0618L15.9204 11.0751L18.7446 10.0977C18.8915 10.047 19.0188 9.95399 19.1126 9.83055L20.9134 7.44695L23.772 8.31805C23.9204 8.36336 24.079 8.36336 24.2274 8.31805L27.086 7.44774L28.8868 9.83133C28.9806 9.95477 29.1079 10.0477 29.2548 10.0985L32.079 11.0759L32.1376 14.0626C32.1407 14.2173 32.1891 14.3673 32.2782 14.4938L33.9845 16.9454L32.2767 19.3977C32.1884 19.5245 32.1398 19.6746 32.1368 19.829L32.0782 22.8157L29.254 23.793C29.1076 23.8437 28.9795 23.9367 28.886 24.0602L27.0852 26.4438L24.2267 25.5727C24.078 25.5289 23.9198 25.5289 23.7712 25.5727L20.9126 26.4431L19.1118 24.0595C19.0183 23.9359 18.8902 23.843 18.7438 23.7923L15.9196 22.8149L15.861 19.8282C15.8582 19.6737 15.8092 19.5235 15.7204 19.397L14.0142 16.9454L15.722 14.493ZM4.35634 17.3477C4.42919 17.2263 4.46767 17.0874 4.46767 16.9458C4.46767 16.8042 4.42919 16.6652 4.35634 16.5438L2.72274 13.8204H14.286L12.4204 16.4993C12.3292 16.6303 12.2802 16.7861 12.2802 16.9458C12.2802 17.1054 12.3292 17.2613 12.4204 17.3923L14.2868 20.0704H2.72274L4.35634 17.3477Z" fill="#46C752"/>
<path d="M23.2181 20.0703L23.2532 20.0696C23.3617 20.0646 23.468 20.0371 23.5652 19.9888C23.6625 19.9406 23.7486 19.8725 23.8181 19.7891L27.7243 15.1016L26.5243 14.1016L23.1657 18.1321L21.4267 16.393L20.322 17.4977L22.6657 19.8414C22.8122 19.988 23.0109 20.0703 23.2181 20.0703ZM27.8845 46.2656C27.9019 46.6556 27.9167 47.0458 27.929 47.436L29.4907 47.3922C29.4789 46.9947 29.4638 46.5973 29.4454 46.2C29.3384 43.6696 29.204 40.5211 30.561 38.6117L33.4056 34.5938C33.4708 34.502 33.5576 34.4278 33.6584 34.3777C33.7592 34.3276 33.8709 34.3032 33.9834 34.3067C34.0959 34.3102 34.2058 34.3414 34.3033 34.3976C34.4008 34.4538 34.4829 34.5333 34.5423 34.6289C34.6025 34.7266 34.7259 34.986 34.5946 35.2508L32.9212 38.1453C32.7149 38.502 32.6063 38.9067 32.6064 39.3188H34.1689C34.1689 39.1813 34.2048 39.0461 34.2735 38.9281L34.4392 38.6414L37.9673 37.4641L37.9923 37.4766L38.0048 37.4516L40.1345 36.7406C40.5044 36.6016 40.8333 36.3716 41.0907 36.0719L44.6657 31.9008C44.7299 31.826 44.8093 31.7657 44.8985 31.7239C44.9878 31.6821 45.0849 31.6598 45.1835 31.6584C45.282 31.657 45.3798 31.6765 45.4702 31.7158C45.5606 31.755 45.6416 31.813 45.7079 31.886C45.9243 32.1141 45.9306 32.5094 45.7235 32.8063L41.3767 39.0164C41.2673 39.1719 41.1407 39.3133 40.9993 39.4375L38.047 42.0211C37.0173 42.9227 34.6376 45.2453 34.7876 47.3414L36.3462 47.2289C36.2642 46.0883 37.765 44.3438 39.0759 43.1969L42.0282 40.6133C42.2634 40.4071 42.4743 40.1727 42.6564 39.9133L47.0032 33.7024C47.6384 32.7953 47.5712 31.5797 46.8423 30.8117C46.6223 30.5821 46.3575 30.4001 46.0642 30.2772C45.771 30.1542 45.4556 30.0928 45.1376 30.0969C44.8215 30.1051 44.5106 30.1795 44.225 30.3151C43.9393 30.4507 43.6852 30.6447 43.479 30.8844L43.247 31.1547L43.3001 30.8352C43.3476 30.552 43.3327 30.2619 43.2566 29.9851C43.1805 29.7082 43.045 29.4513 42.8594 29.2322C42.6739 29.0131 42.4428 28.8371 42.1822 28.7165C41.9217 28.5958 41.638 28.5334 41.3509 28.5336C40.91 28.5332 40.4816 28.6804 40.1341 28.9517C39.7865 29.2229 39.5397 29.6027 39.4329 30.0305L38.8993 32.1672L36.8954 36.175L35.6165 36.6016L35.9681 35.9922C36.3189 35.2914 36.2821 34.475 35.8704 33.8086C35.4587 33.1422 34.7446 32.7438 33.961 32.7438C33.2337 32.7438 32.5485 33.0985 32.129 33.6914L29.2985 37.6906C27.6204 40.0524 27.7665 43.4977 27.8845 46.2656ZM40.336 32.7883C40.3617 32.7373 40.3816 32.6836 40.3954 32.6281L40.9501 30.4086C40.9759 30.3046 41.0409 30.2147 41.1316 30.1576C41.2223 30.1006 41.3316 30.081 41.4365 30.1028C41.5413 30.1247 41.6337 30.1863 41.6941 30.2748C41.7544 30.3633 41.7782 30.4717 41.7603 30.5774L41.2821 33.4485L39.9048 35.0547C39.826 35.1483 39.7258 35.2215 39.6126 35.268L38.9931 35.4742L40.336 32.7883ZM14.0626 34.3055C14.2837 34.3055 14.4923 34.4133 14.6196 34.5938L17.4517 38.5953C18.8204 40.5219 18.6868 43.6711 18.579 46.2008C18.5618 46.6125 18.5446 47.0117 18.5345 47.3922L20.0962 47.436C20.1064 47.0625 20.1235 46.6711 20.1407 46.2672C20.2579 43.4985 20.404 40.0531 18.7251 37.6899L18.7228 37.6914C18.5712 37.4703 18.0235 36.6977 15.8954 33.6899C15.6878 33.3971 15.413 33.1583 15.0941 32.9934C14.7753 32.8285 14.4216 32.7424 14.0626 32.7422C13.6798 32.7407 13.303 32.8378 12.9686 33.0242C12.6342 33.2106 12.3534 33.4799 12.1532 33.8063C11.7415 34.4735 11.7048 35.2891 12.0775 36.0321L12.4056 36.5992L11.129 36.1735L9.12511 32.1656L8.59074 30.0289C8.50297 29.6758 8.31936 29.3538 8.06018 29.0985C7.80099 28.8431 7.4763 28.6643 7.12193 28.5818C6.76756 28.4993 6.39729 28.5163 6.05196 28.6309C5.70663 28.7455 5.39967 28.9533 5.16496 29.2313C4.97938 29.4501 4.8438 29.7067 4.7677 29.9834C4.69159 30.26 4.67679 30.5499 4.72433 30.8328L4.77745 31.1524L4.54542 30.8828C4.33923 30.6431 4.08513 30.4492 3.79947 30.3135C3.51382 30.1779 3.20294 30.1036 2.88683 30.0953C2.56901 30.0923 2.25392 30.1542 1.96082 30.2771C1.66772 30.4 1.40276 30.5814 1.18214 30.8102C0.454017 31.5789 0.38683 32.7946 1.0212 33.7008L5.36886 39.9117C5.54933 40.1696 5.76027 40.4047 5.99621 40.6117L8.94855 43.1953C10.2587 44.3422 11.7603 46.086 11.6782 47.2274L13.2368 47.3399C13.3868 45.2438 11.0079 42.9211 9.97824 42.0196L7.02589 39.436C6.88416 39.3116 6.75775 39.1707 6.64933 39.0164L2.30089 32.8047C2.09386 32.5086 2.10011 32.1125 2.31652 31.8852C2.38475 31.8127 2.46724 31.7551 2.55879 31.7159C2.65034 31.6768 2.74899 31.657 2.84855 31.6578C2.94593 31.6602 3.04173 31.6829 3.12975 31.7246C3.21777 31.7664 3.29604 31.8261 3.35949 31.9L6.93449 36.0703C7.19074 36.3696 7.52121 36.6016 7.91808 36.75L10.0204 37.4516L10.0329 37.4758L10.0571 37.4633L13.586 38.6406L13.7517 38.9281C13.7931 39.0008 13.8564 39.2664 13.8564 39.4703H15.4189C15.4189 39.1805 15.3525 38.5758 15.104 38.1461L13.4525 35.2922C13.3994 35.1885 13.3742 35.0727 13.3794 34.9562C13.3846 34.8398 13.42 34.7268 13.4821 34.6281C13.5428 34.5288 13.6282 34.4469 13.7299 34.3904C13.8316 34.3339 13.9462 34.3046 14.0626 34.3055ZM8.43917 35.2774C8.31582 35.2309 8.20619 35.154 8.12042 35.0539L6.74308 33.4477L6.26496 30.5766C6.23761 30.4125 6.31105 30.2969 6.35714 30.2422C6.40324 30.1875 6.50558 30.0953 6.67277 30.0953C6.86339 30.0953 7.02824 30.2242 7.07433 30.4086L7.62902 32.6289C7.64308 32.6844 7.66261 32.7375 7.68839 32.7891L9.03214 35.4758L8.43917 35.2774ZM22.8657 31.7367C22.3721 31.699 21.8806 31.637 21.3931 31.5508L21.1212 33.0899C21.6571 33.1844 22.204 33.2531 22.747 33.2946L22.8657 31.7367ZM25.8298 31.6696C25.3415 31.7297 24.8431 31.7656 24.3509 31.7766L24.386 33.3391C24.9327 33.3265 25.4784 33.2868 26.0212 33.2203L25.8298 31.6696ZM19.9478 31.2203C19.4716 31.0856 19.0025 30.9271 18.5423 30.7453L17.9696 32.1992C18.4782 32.4 19.0009 32.5766 19.5228 32.7242L19.9478 31.2203ZM27.29 31.4156L27.6345 32.9391C28.1657 32.8188 28.697 32.6703 29.2142 32.4961L28.7165 31.0149C28.2509 31.1719 27.7704 31.3063 27.29 31.4156ZM17.1931 30.1321C16.7537 29.9046 16.3259 29.6556 15.911 29.386L15.0587 30.6953C15.5142 30.9922 15.9907 31.2696 16.4759 31.5196L17.1931 30.1321ZM31.4181 29.7953C30.9897 30.0427 30.5493 30.2688 30.0985 30.4727L30.7415 31.8969C31.2396 31.6718 31.7261 31.422 32.1993 31.1485L31.4181 29.7953ZM14.7103 28.5156C14.3267 28.2071 13.9532 27.875 13.6017 27.5297L12.5064 28.6446C12.8946 29.0266 13.3071 29.393 13.7314 29.7336L14.7103 28.5156ZM33.8235 28.0641C33.454 28.3906 33.0642 28.7016 32.6642 28.9899L33.5775 30.2578C34.0211 29.9383 34.4487 29.597 34.8587 29.2352L33.8235 28.0641ZM10.4095 26.1289C10.7142 26.5797 11.0462 27.0203 11.3954 27.4391L12.5954 26.4383C12.2788 26.0581 11.981 25.6626 11.7032 25.2531L10.4095 26.1289ZM34.8853 27.0281L36.0314 28.0906C36.4025 27.6899 36.7571 27.268 37.0845 26.8352L35.84 25.8914C35.5431 26.2828 35.222 26.6656 34.8853 27.0281ZM8.85167 23.2485C9.06261 23.7531 9.30011 24.25 9.5587 24.7281L10.9329 23.9852C10.6975 23.5501 10.4842 23.1035 10.2939 22.6469L8.85167 23.2485ZM38.7931 24.0399L37.3853 23.3625C37.1712 23.8078 36.9329 24.2461 36.6767 24.6656L38.0095 25.4805C38.2923 25.0164 38.5564 24.5313 38.7931 24.0399ZM9.58527 10.0688L11.0032 10.725C11.2087 10.2797 11.4415 9.83831 11.6931 9.41252L10.3478 8.61721C10.0701 9.08836 9.81564 9.57279 9.58527 10.0688ZM39.5345 10.4313C39.3165 9.92997 39.0737 9.43979 38.8071 8.96252L37.4431 9.72424C37.6837 10.1555 37.9056 10.6024 38.1017 11.0539L39.5345 10.4313ZM13.4485 7.02502L12.2892 5.97815C11.9227 6.38416 11.577 6.8084 11.2532 7.24924L12.5118 8.17502C12.8032 7.77815 13.1181 7.39143 13.4485 7.02502ZM37.9353 7.57268C37.6221 7.12472 37.287 6.69242 36.9314 6.27737L35.7454 7.29456C36.0673 7.66955 36.3728 8.06409 36.6548 8.46721L37.9353 7.57268ZM14.4962 5.97346C14.861 5.64221 15.247 5.32502 15.6431 5.03127L14.7126 3.77581C14.2751 4.10002 13.8493 4.45002 13.4462 4.81643L14.4962 5.97346ZM33.6017 5.24768C33.9892 5.54924 34.3665 5.8758 34.7243 6.21721L35.8032 5.08752C35.4078 4.71007 34.9937 4.35259 34.5626 4.01643L33.6017 5.24768ZM18.1876 3.51096L17.5235 2.0969C17.0286 2.3289 16.5457 2.58574 16.0767 2.86643L16.8782 4.20784C17.3028 3.9538 17.7398 3.72122 18.1876 3.51096ZM31.0962 3.66721C31.5353 3.88596 31.9704 4.13049 32.3876 4.39377L33.2212 3.07268C32.7586 2.78089 32.2817 2.51232 31.7923 2.26799L31.0962 3.66721ZM19.5603 2.94924C20.0267 2.78569 20.501 2.64542 20.9814 2.52893L20.6142 1.01018C20.0829 1.13831 19.554 1.29534 19.0415 1.47502L19.5603 2.94924ZM30.29 1.61174C29.7781 1.41828 29.2569 1.25062 28.7282 1.1094L28.3259 2.61956C28.8001 2.74534 29.2743 2.89846 29.736 3.07346L30.29 1.61174ZM22.4392 2.25393C22.9292 2.18652 23.4222 2.14376 23.9165 2.12581L23.8587 0.564087C23.3134 0.584399 22.7634 0.632056 22.2251 0.706274L22.4392 2.25393ZM25.3993 2.14377C25.8946 2.17502 26.3915 2.22971 26.8751 2.30862L27.1243 0.766431C26.5849 0.679251 26.0416 0.618501 25.4962 0.584399L25.3993 2.14377Z" fill="#46C752"/>
</svg>
