<svg width="51" height="50" viewBox="0 0 51 50" fill="none" xmlns="http://www.w3.org/2000/svg">
<g clip-path="url(#clip0_63_121)">
<path d="M31.5463 11.4858H31.6047C31.6047 11.4858 31.5593 11.3716 31.5463 11.4858ZM17.4387 11.4858H17.4971C17.4841 11.3716 17.4387 11.4858 17.4387 11.4858Z" fill="#46C752"/>
<path d="M45.6368 15.0827C45.4762 14.8248 45.2662 14.6014 45.0188 14.4253C44.7713 14.2492 44.4914 14.1239 44.1952 14.0567L41.0256 13.3284L42.4891 12.9187C43.7017 12.5793 44.4323 11.2842 44.0923 10.0694C43.7529 8.85678 42.4579 8.12641 41.2429 8.46615L34.4191 10.376C34.2415 10.053 33.9897 9.77688 33.6845 9.57025C35.0694 6.99301 37.0646 2.61947 37.0646 0.737929C37.0646 0.279042 36.6308 -0.0760358 36.1807 0.0146868C33.4726 0.561757 30.9477 0.814199 28.4648 0.787148C25.9126 0.75912 22.7364 0.442128 20.7407 0.016347C20.1237 -0.115294 19.6285 0.575136 19.9539 1.11752C20.4403 1.92807 20.7382 2.7851 20.902 3.64887C18.3972 3.72562 15.7996 3.42211 13.8336 2.439C13.304 2.17416 12.6789 2.63754 12.7758 3.22025C13.3942 6.92992 14.6416 9.10492 15.8923 10.7482H15.8646C14.5899 10.7482 13.5528 11.7853 13.5528 13.06C13.5528 14.2324 14.4302 15.203 15.5626 15.3515C14.7371 16.7341 13.5582 18.0459 12.3196 19.4225C9.68548 22.3498 6.69983 25.6678 5.69534 31.0251C5.21468 33.5885 5.23069 35.9871 5.7431 38.1542C6.22142 40.1775 7.13245 42.0088 8.45071 43.5973C10.2006 45.7059 12.6048 47.3419 15.5964 48.4603C18.2912 49.4676 21.3775 50 24.5216 50C27.6658 50 30.7521 49.4676 33.4468 48.4603C36.4384 47.3419 38.8426 45.7058 40.5925 43.5973C41.9108 42.0088 42.8218 40.1776 43.3001 38.1542C43.8124 35.9871 43.8286 33.5884 43.3479 31.0251C42.3434 25.6679 39.3578 22.3499 36.7238 19.4226C35.8295 18.4287 34.9787 17.4812 34.2655 16.5195L43.1599 18.563C44.1022 18.7795 45.1063 18.3673 45.6268 17.5531C46.1032 16.8076 46.106 15.8315 45.6368 15.0827ZM28.4486 2.26264C30.7203 2.28744 33.0196 2.08881 35.4482 1.656C35.0029 3.4766 33.5729 6.71469 32.2165 9.18139C31.2766 9.25219 30.492 9.88715 30.2012 10.7481H28.1528C28.1065 10.6484 28.0552 10.5391 27.9981 10.4177C27.3647 9.07123 26.0465 6.26947 26.0465 3.88588C26.0465 3.42768 25.6138 3.0724 25.164 3.16244C24.3054 3.33422 23.3608 3.47318 22.3779 3.56029C22.2748 2.94467 22.115 2.32807 21.8826 1.72162C23.865 2.02846 26.3621 2.23969 28.4486 2.26264ZM33.2279 11.4858V14.6338C33.2279 15.0949 32.8528 15.4701 32.3916 15.4701C31.9305 15.4701 31.5554 15.095 31.5554 14.6338V11.4858C31.5554 11.0246 31.9305 10.6495 32.3916 10.6495C32.8528 10.6495 33.2279 11.0247 33.2279 11.4858ZM14.4957 4.30726C16.3403 4.93685 18.6093 5.21605 21.0598 5.12992L22.5221 5.03754C23.2235 4.97289 23.9222 4.88162 24.6166 4.76391C24.8467 7.04652 25.8895 9.39203 26.5231 10.7481H17.7753C17.7588 10.7218 17.7407 10.6966 17.721 10.6726C16.4869 9.18793 15.2347 7.47064 14.4957 4.30726ZM35.6268 20.4094C38.1312 23.1924 40.9694 26.3467 41.8977 31.2968C42.7519 35.8527 41.9307 39.674 39.457 42.6545C36.4068 46.3298 30.8235 48.5242 24.5217 48.5242C18.22 48.5242 12.6366 46.3299 9.58636 42.6546C7.11263 39.6741 6.29153 35.8528 7.14564 31.2969C8.07386 26.3467 10.9122 23.1923 13.4165 20.4094C14.9139 18.7453 16.3285 17.1712 17.2352 15.3717H19.0371C19.134 15.3717 19.23 15.3527 19.3195 15.3156C19.409 15.2785 19.4904 15.2242 19.5589 15.1557C19.6274 15.0871 19.6817 15.0058 19.7188 14.9163C19.7559 14.8268 19.7749 14.7308 19.7749 14.6339C19.7749 14.537 19.7559 14.4411 19.7188 14.3516C19.6817 14.2621 19.6274 14.1807 19.5589 14.1122C19.4904 14.0437 19.409 13.9893 19.3195 13.9523C19.23 13.9152 19.134 13.8961 19.0371 13.8961H15.8645C15.4034 13.8961 15.0283 13.521 15.0283 13.0599C15.0283 12.5988 15.4034 12.2237 15.8645 12.2237H30.0797V13.896H22.5539C22.3583 13.896 22.1706 13.9738 22.0322 14.1121C21.8939 14.2505 21.8161 14.4382 21.8161 14.6338C21.8161 14.8295 21.8939 15.0172 22.0322 15.1555C22.1706 15.2939 22.3583 15.3716 22.5539 15.3716H30.2011C30.5098 16.2855 31.3747 16.9456 32.3915 16.9456C32.509 16.9456 32.6243 16.9367 32.7371 16.9198C33.5606 18.1109 34.5643 19.2287 35.6268 20.4094ZM34.7035 11.8287L41.6406 9.88725C42.0798 9.7641 42.5486 10.0287 42.6712 10.4671C42.7941 10.9065 42.5299 11.375 42.0913 11.4977L38.1269 12.6073C38.0951 12.6164 38.064 12.6277 38.0337 12.6411L34.7035 11.8759V11.8287ZM44.4925 16.4969C44.3892 16.9463 43.9404 17.2281 43.4903 17.1246L34.6572 15.0952C34.688 14.9433 34.7035 14.7887 34.7035 14.6337V13.3898L43.8647 15.4947C44.3087 15.5967 44.5946 16.0525 44.4925 16.4969Z" fill="#46C752"/>
<path d="M29.2438 30.3248C30.3015 30.3248 31.1622 29.4642 31.1622 28.4064V27.226C31.1622 24.4654 29.1032 22.1769 26.4401 21.8158V20.5364C26.4401 19.4787 25.5795 18.618 24.5217 18.618C23.464 18.618 22.6034 19.4786 22.6034 20.5364V21.9135C19.8693 22.5233 17.8813 24.9539 17.8813 27.8162C17.8813 31.1522 20.5954 33.8663 23.9314 33.8663H25.1119C26.3323 33.8663 27.3253 34.8592 27.3253 36.0798C27.3253 37.3004 26.3324 38.2932 25.1119 38.2932H23.3411C22.4459 38.2932 21.7178 37.565 21.7178 36.67C21.7178 35.6123 20.8573 34.7516 19.7995 34.7516C18.7417 34.7516 17.8811 35.6122 17.8811 36.67C17.8811 39.4305 19.9401 41.719 22.6032 42.0802V43.3595C22.6032 44.4173 23.4637 45.2779 24.5215 45.2779C25.5792 45.2779 26.4399 44.4174 26.4399 43.3595V41.9825C29.174 41.3726 31.162 38.9421 31.162 36.0798C31.162 32.7437 28.4479 30.0297 25.1119 30.0297H23.9314C22.711 30.0297 21.7179 29.0368 21.7179 27.8162C21.7179 26.5956 22.7109 25.6027 23.9314 25.6027H25.7022C26.5973 25.6027 27.3254 26.3309 27.3254 27.226V28.4064C27.3254 29.4641 28.1861 30.3248 29.2438 30.3248ZM25.7023 24.1271H23.9315C21.8973 24.1271 20.2424 25.782 20.2424 27.8162C20.2424 29.8504 21.8973 31.5052 23.9315 31.5052H25.112C27.6344 31.5052 29.6865 33.5574 29.6865 36.0798C29.6865 38.4136 27.9385 40.3677 25.6209 40.6252C25.4404 40.6452 25.2736 40.7311 25.1525 40.8664C25.0315 41.0017 24.9645 41.1769 24.9645 41.3585V43.3595C24.9645 43.6036 24.7659 43.8022 24.5218 43.8022C24.2778 43.8022 24.0792 43.6036 24.0792 43.3595V41.3921C24.0792 41.2952 24.0601 41.1992 24.023 41.1097C23.9859 41.0202 23.9316 40.9389 23.8631 40.8703C23.7946 40.8018 23.7132 40.7475 23.6237 40.7104C23.5342 40.6733 23.4383 40.6543 23.3414 40.6543C21.1444 40.6543 19.3572 38.867 19.3572 36.6701C19.3572 36.4261 19.5558 36.2274 19.7999 36.2274C20.0439 36.2274 20.2425 36.4261 20.2425 36.6701C20.2425 38.3788 21.6327 39.7689 23.3414 39.7689H25.1122C27.1463 39.7689 28.8012 38.114 28.8012 36.0799C28.8012 34.0457 27.1463 32.3908 25.1122 32.3908H23.9317C21.4092 32.3908 19.3572 30.3386 19.3572 27.8163C19.3572 25.4824 21.1051 23.5284 23.4228 23.2709C23.6033 23.2508 23.77 23.1649 23.8911 23.0296C24.0122 22.8943 24.0792 22.7191 24.0792 22.5376V20.5365C24.0792 20.2925 24.2778 20.0938 24.5218 20.0938C24.7659 20.0938 24.9645 20.2925 24.9645 20.5365V22.504C24.9645 22.6009 24.9836 22.6968 25.0206 22.7863C25.0577 22.8759 25.1121 22.9572 25.1806 23.0257C25.2491 23.0942 25.3304 23.1486 25.4199 23.1856C25.5095 23.2227 25.6054 23.2418 25.7023 23.2418C27.8993 23.2418 29.6865 25.0291 29.6865 27.226V28.4064C29.6865 28.6505 29.4878 28.8491 29.2438 28.8491C28.9998 28.8491 28.8011 28.6505 28.8011 28.4064V27.226C28.8011 25.5173 27.411 24.1271 25.7023 24.1271Z" fill="#46C752"/>
</g>
<defs>
<clipPath id="clip0_63_121">
<rect width="50" height="50" fill="white" transform="translate(0.666504)"/>
</clipPath>
</defs>
</svg>
