<svg width="51" height="50" viewBox="0 0 51 50" fill="none" xmlns="http://www.w3.org/2000/svg">
<g clip-path="url(#clip0_63_127)">
<path d="M3.83345 22.5941L5.12827 17.4149C4.77427 17.3397 4.50864 17.0256 4.50864 16.6494V15.8143C4.50864 14.0012 5.98374 12.5262 7.79673 12.5262H13.6944V10.8038C13.6944 9.91157 14.4202 9.18579 15.3124 9.18579H45.375C46.2672 9.18579 46.993 9.91157 46.993 10.8038V25C46.993 25.2077 46.9105 25.4068 46.7637 25.5537C46.6169 25.7005 46.4177 25.783 46.2101 25.783C46.0025 25.783 45.8033 25.7005 45.6565 25.5537C45.5097 25.4068 45.4272 25.2077 45.4272 25V10.8038C45.4272 10.775 45.4039 10.7516 45.375 10.7516H15.3125C15.2836 10.7516 15.2603 10.775 15.2603 10.8038V25.0002C15.2603 25.2079 15.1778 25.407 15.031 25.5538C14.8842 25.7007 14.685 25.7832 14.4774 25.7832C14.2698 25.7832 14.0706 25.7007 13.9238 25.5538C13.777 25.407 13.6945 25.2079 13.6945 25.0002V24.1127H4.45923L4.45718 24.1129L4.45503 24.1128C3.3186 24.1136 2.35366 24.8595 2.02222 25.8874H4.45659C4.66423 25.8874 4.86337 25.9698 5.01019 26.1167C5.15702 26.2635 5.2395 26.4626 5.2395 26.6703V28.3404C5.2395 29.693 4.13911 30.7934 2.78648 30.7934H1.89917V34.238H3.94624C4.6187 32.2963 6.4645 30.8977 8.63198 30.8977C10.7995 30.8977 12.6454 32.2963 13.3177 34.238H13.6947V28.3403C13.6947 28.1326 13.7772 27.9335 13.924 27.7867C14.0708 27.6399 14.2699 27.5574 14.4776 27.5574C14.6852 27.5574 14.8844 27.6399 15.0312 27.7867C15.178 27.9335 15.2605 28.1326 15.2605 28.3403V34.2378H31.5035C32.1759 32.2961 34.0217 30.8975 36.1892 30.8975C38.3567 30.8975 40.2026 32.2961 40.875 34.2378H45.375C45.3889 34.2378 45.4021 34.2323 45.4119 34.2226C45.4217 34.2128 45.4272 34.1995 45.4272 34.1857V32.4633H42.0347C41.8271 32.4633 41.6279 32.3808 41.4811 32.234C41.3343 32.0872 41.2518 31.8881 41.2518 31.6804C41.2518 31.4728 41.3343 31.2736 41.4811 31.1268C41.6279 30.98 41.8271 30.8975 42.0347 30.8975H49.5503C49.758 30.8975 49.9571 30.98 50.1039 31.1268C50.2508 31.2736 50.3333 31.4728 50.3333 31.6804C50.3333 31.8881 50.2508 32.0872 50.1039 32.234C49.9571 32.3808 49.758 32.4633 49.5503 32.4633H46.9929V34.1857C46.9929 35.0779 46.2671 35.8037 45.375 35.8037H41.146C41.1462 35.821 41.1474 35.8383 41.1474 35.8558C41.1474 38.5898 38.9231 40.814 36.1892 40.814C33.4553 40.814 31.231 38.5898 31.231 35.8558C31.231 35.8382 31.2322 35.821 31.2324 35.8037H13.5888C13.589 35.821 13.5902 35.8383 13.5902 35.8558C13.5902 38.5898 11.3659 40.814 8.63198 40.814C5.89809 40.814 3.67378 38.5898 3.67378 35.8558C3.67378 35.8382 3.67495 35.821 3.67515 35.8037H1.11626C0.908619 35.8037 0.709484 35.7212 0.56266 35.5744C0.415833 35.4275 0.333351 35.2284 0.333351 35.0208V26.6701C0.333252 24.6084 1.85444 22.8954 3.83345 22.5941ZM13.6944 14.0919H7.79673C6.84702 14.0919 6.07436 14.8646 6.07436 15.8143V15.8665H13.6944V14.0919ZM13.6944 22.547V17.4322H6.73784L5.45913 22.547H13.6944ZM36.1892 39.2485C38.0598 39.2485 39.5817 37.7267 39.5817 35.856C39.5817 33.9853 38.0598 32.4635 36.1892 32.4635C34.3186 32.4635 32.7967 33.9853 32.7967 35.856C32.7967 37.7267 34.3186 39.2485 36.1892 39.2485ZM8.63179 39.2485C10.5024 39.2485 12.0243 37.7267 12.0243 35.856C12.0243 33.9853 10.5024 32.4635 8.63179 32.4635C6.76118 32.4635 5.23931 33.9853 5.23931 35.856C5.23931 37.7267 6.76118 39.2485 8.63179 39.2485ZM1.89898 29.2276H2.78628C3.27554 29.2276 3.67358 28.8295 3.67358 28.3403V27.453H1.89907V29.2276H1.89898Z" fill="#46C752"/>
<path d="M19.4878 34.2381C18.5957 34.2381 17.8699 34.9639 17.8699 35.8561C17.8699 36.7482 18.5957 37.474 19.4878 37.474C20.38 37.474 21.1058 36.7482 21.1058 35.8561C21.1058 34.9639 20.38 34.2381 19.4878 34.2381ZM47.0453 34.2381C46.1531 34.2381 45.4273 34.9639 45.4273 35.8561C45.4273 36.7482 46.1531 37.474 47.0453 37.474C47.9375 37.474 48.6632 36.7482 48.6632 35.8561C48.6632 34.9639 47.9375 34.2381 47.0453 34.2381ZM37.8594 30.8979H26.1684C25.9608 30.8979 25.7616 30.9803 25.6148 31.1272C25.468 31.274 25.3855 31.4731 25.3855 31.6808C25.3855 31.8884 25.468 32.0875 25.6148 32.2344C25.7616 32.3812 25.9608 32.4637 26.1684 32.4637H37.8594C38.0671 32.4637 38.2662 32.3812 38.413 32.2344C38.5599 32.0875 38.6423 31.8884 38.6423 31.6808C38.6423 31.4731 38.5599 31.274 38.413 31.1272C38.2662 30.9803 38.0671 30.8979 37.8594 30.8979ZM17.8177 27.5575H7.79683C7.58919 27.5575 7.39005 27.64 7.24323 27.7868C7.0964 27.9337 7.01392 28.1328 7.01392 28.3404C7.01392 28.5481 7.0964 28.7472 7.24323 28.894C7.39005 29.0409 7.58919 29.1233 7.79683 29.1233H17.8177C18.0254 29.1233 18.2245 29.0409 18.3713 28.894C18.5181 28.7472 18.6006 28.5481 18.6006 28.3404C18.6006 28.1328 18.5181 27.9337 18.3713 27.7868C18.2245 27.64 18.0254 27.5575 17.8177 27.5575ZM32.5675 16.9308C32.4207 16.784 32.2216 16.7015 32.0139 16.7015C31.8063 16.7016 31.6072 16.784 31.4604 16.9309L24.4983 23.8929L20.8765 20.2711C20.8038 20.1984 20.7175 20.1407 20.6225 20.1014C20.5276 20.062 20.4258 20.0418 20.3229 20.0418C20.2201 20.0418 20.1183 20.062 20.0234 20.1014C19.9284 20.1407 19.8421 20.1984 19.7694 20.2711C19.6967 20.3438 19.639 20.4301 19.5997 20.5251C19.5603 20.62 19.5401 20.7218 19.5401 20.8247C19.5401 20.9275 19.5603 21.0293 19.5997 21.1242C19.639 21.2192 19.6967 21.3055 19.7694 21.3782L23.9448 25.5536C24.0976 25.7065 24.298 25.7829 24.4983 25.7829C24.6986 25.7829 24.8991 25.7065 25.0518 25.5536L32.5674 18.038C32.7143 17.8912 32.7967 17.692 32.7968 17.4844C32.7968 17.2768 32.7143 17.0776 32.5675 16.9308Z" fill="#46C752"/>
</g>
<defs>
<clipPath id="clip0_63_127">
<rect width="50" height="50" fill="white" transform="matrix(-1 0 0 1 50.3333 0)"/>
</clipPath>
</defs>
</svg>
