<svg width="13" height="13" viewBox="0 0 13 13" fill="none" xmlns="http://www.w3.org/2000/svg">
<path d="M8.54292 0.5H3.95708C1.91146 0.5 0.25 2.16146 0.25 4.20708V8.79292C0.25 10.8385 1.91146 12.5 3.95708 12.5H8.54292C10.5885 12.5 12.25 10.8385 12.25 8.79292V4.20708C12.25 2.16146 10.5885 0.5 8.54292 0.5ZM10.9103 8.79772C10.9103 10.1038 9.84904 11.1699 8.53812 11.1699H3.95228C2.64616 11.1699 1.58013 10.1086 1.58013 8.79772V4.21188C1.58013 2.90576 2.64136 1.83974 3.95228 1.83974H8.53812C9.84424 1.83974 10.9103 2.90096 10.9103 4.21188V8.79772Z" fill="#005D45"/>
<path d="M6.24616 3.4375C4.55589 3.4375 3.17773 4.81565 3.17773 6.50593C3.17773 8.1962 4.55589 9.57435 6.24616 9.57435C7.93644 9.57435 9.31459 8.1962 9.31459 6.50593C9.31459 4.81565 7.93644 3.4375 6.24616 3.4375ZM6.24616 8.36907C5.21855 8.36907 4.38302 7.53354 4.38302 6.50593C4.38302 5.47832 5.21855 4.64278 6.24616 4.64278C7.27377 4.64278 8.10931 5.47832 8.10931 6.50593C8.10931 7.53354 7.27377 8.36907 6.24616 8.36907Z" fill="#005D45"/>
<path d="M9.54773 3.76849C9.83042 3.72245 10.0223 3.45596 9.97623 3.17326C9.93019 2.89057 9.6637 2.69872 9.38101 2.74476C9.09831 2.7908 8.90646 3.05729 8.9525 3.33999C8.99854 3.62268 9.26504 3.81453 9.54773 3.76849Z" fill="#005D45"/>
</svg>
