<svg width="24" height="25" viewBox="0 0 24 25" fill="none" xmlns="http://www.w3.org/2000/svg">
<path d="M20.7577 10.9072C20.7577 16.5229 14.2585 21.5196 12.7218 22.6225C12.511 22.7739 12.2605 22.8482 12.0009 22.8482C11.7414 22.8482 11.4909 22.7739 11.2801 22.6225C9.74338 21.5196 3.24414 16.5229 3.24414 10.9072C3.24414 6.07093 7.16468 2.15039 12.0009 2.15039C16.8372 2.15039 20.7577 6.07093 20.7577 10.9072Z" stroke="#668079" stroke-width="1.71" stroke-linecap="round" stroke-linejoin="round"/>
<path d="M8.81641 10.112C8.81641 10.9565 9.15189 11.7665 9.74906 12.3637C10.3462 12.9608 11.1562 13.2963 12.0007 13.2963C12.8452 13.2963 13.6552 12.9608 14.2523 12.3637C14.8495 11.7665 15.185 10.9565 15.185 10.112C15.185 9.26749 14.8495 8.45756 14.2523 7.86039C13.6552 7.26322 12.8452 6.92773 12.0007 6.92773C11.1562 6.92773 10.3462 7.26322 9.74906 7.86039C9.15189 8.45756 8.81641 9.26749 8.81641 10.112Z" stroke="#668079" stroke-width="1.71" stroke-linecap="round" stroke-linejoin="round"/>
</svg>
