<svg width="32" height="32" viewBox="0 0 32 32" fill="none" xmlns="http://www.w3.org/2000/svg">
<path fillRule="evenodd" clipRule="evenodd" d="M12.0635 14.82L16.5291 19.5207C17.0133 20.0303 17.8901 20.1031 18.867 19.6229C21.353 18.5947 22.1801 18.344 22.6523 18.8411L27.7856 24.2445C28.3924 24.8833 28.2305 25.9472 27.5519 26.6614C24.0286 30.3702 18.3018 30.3702 14.7785 26.6614L5.18933 16.5676C1.68364 12.8774 1.68364 6.9073 5.18933 3.21709C5.88218 2.48777 6.9462 2.30832 7.57585 2.97111L12.7091 8.37454C13.154 8.84288 12.9155 9.7152 11.9441 12.3143C11.4925 13.3289 11.5648 14.2951 12.0635 14.82Z" fill="#005D45"/>
</svg>
