<svg width="12" height="11" viewBox="0 0 12 11" fill="none" xmlns="http://www.w3.org/2000/svg">
<g clip-path="url(#clip0_17_556)">
<g clip-path="url(#clip1_17_556)">
<path fill-rule="evenodd" clip-rule="evenodd" d="M5.86152 0.109375H5.83255H5.63513C5.18292 0.111861 4.73593 0.206222 4.32131 0.386729C4.01214 0.521788 3.72865 0.709267 3.48335 0.940897C3.18616 1.22611 2.94824 1.56722 2.78325 1.94463C2.57556 2.69922 2.52553 3.4885 2.63626 4.26327C2.64163 4.34642 2.64699 4.43332 2.65182 4.51808C2.59215 4.54332 2.52773 4.5554 2.46298 4.55349C2.28452 4.54481 2.11001 4.49799 1.95119 4.41616C1.88998 4.38871 1.82352 4.37497 1.75645 4.37592C1.63523 4.37731 1.51648 4.41041 1.41203 4.47194C1.35163 4.50342 1.29869 4.54749 1.25677 4.60117C1.21485 4.65484 1.18493 4.71688 1.16902 4.78311C1.15753 4.85859 1.16639 4.93576 1.19468 5.00668C1.22297 5.07759 1.26966 5.13967 1.32995 5.18652C1.4574 5.29296 1.60271 5.37597 1.75913 5.43169C1.80795 5.451 1.86642 5.46925 1.92705 5.48856C2.14163 5.55616 2.46352 5.65808 2.5456 5.85496C2.56515 5.92011 2.57048 5.98869 2.56122 6.05608C2.55197 6.12346 2.52834 6.18806 2.49194 6.24551C2.48972 6.24987 2.48776 6.25436 2.48605 6.25894C2.33654 6.58321 2.14183 6.88465 1.90773 7.15429C1.70611 7.39222 1.47122 7.59984 1.21032 7.77071C0.913286 7.96432 0.579394 8.09437 0.229653 8.15268C0.164099 8.16319 0.104773 8.19764 0.0631525 8.24937C0.0215325 8.3011 0.000577513 8.36643 0.00433695 8.43272C0.00670683 8.47303 0.0161505 8.51261 0.0322344 8.54966C0.116731 8.70445 0.255138 8.82282 0.42117 8.88227C0.782311 9.02853 1.16107 9.12684 1.54776 9.17465C1.57828 9.25478 1.60128 9.33757 1.61643 9.42196C1.63521 9.50834 1.65452 9.59739 1.68242 9.6902C1.69887 9.75799 1.73885 9.81773 1.79524 9.8588C1.85164 9.89986 1.92078 9.91959 1.99035 9.91444C2.07941 9.91016 2.16793 9.89795 2.25483 9.87797C2.45297 9.83464 2.65501 9.81162 2.85782 9.80929C3.00163 9.80978 3.14517 9.82198 3.287 9.84576C3.58283 9.92273 3.85776 10.0648 4.0917 10.2615C4.53704 10.6393 5.09612 10.8569 5.67965 10.8795C5.69896 10.8795 5.71828 10.8795 5.73759 10.8795C5.7569 10.8795 5.79124 10.8795 5.82074 10.8795C6.40414 10.857 6.96312 10.6394 7.40816 10.2615C7.6422 10.065 7.9171 9.92318 8.21286 9.8463C8.35469 9.82252 8.49823 9.81032 8.64204 9.80983C8.84467 9.81076 9.0467 9.83214 9.24504 9.87366C9.33183 9.89252 9.42019 9.90329 9.50897 9.90585H9.52239C9.58947 9.90881 9.6555 9.88848 9.70928 9.84828C9.76307 9.80809 9.80129 9.75054 9.81745 9.68537C9.84481 9.5931 9.86412 9.50619 9.88343 9.41713C9.89861 9.33333 9.92142 9.25108 9.95157 9.17143C10.3382 9.1235 10.717 9.0252 11.0781 8.87904C11.2439 8.81968 11.3822 8.70178 11.4671 8.54751C11.4835 8.51017 11.4931 8.47021 11.4955 8.42949C11.4975 8.36438 11.4758 8.30076 11.4343 8.25051C11.3928 8.20027 11.3345 8.16682 11.2702 8.15643C9.73376 7.90375 9.04171 6.32975 9.01274 6.26269L9.0063 6.24928C8.96994 6.19181 8.94634 6.1272 8.93708 6.05982C8.92783 5.99245 8.93313 5.92388 8.95265 5.85873C9.03634 5.66185 9.35876 5.55991 9.5712 5.49285C9.6329 5.47354 9.69084 5.45475 9.73912 5.43598C9.90946 5.37784 10.0657 5.28465 10.1978 5.16239C10.2411 5.12236 10.2758 5.07395 10.2998 5.02009C10.3237 4.96623 10.3365 4.90804 10.3373 4.84908C10.3272 4.74832 10.2864 4.6531 10.2204 4.57633C10.1544 4.49956 10.0663 4.44495 9.96819 4.41991C9.88871 4.38804 9.80383 4.37184 9.7182 4.37217C9.63828 4.37109 9.55906 4.38718 9.48591 4.41937C9.33632 4.4948 9.17374 4.54105 9.00684 4.55564C8.95146 4.55439 8.89683 4.54255 8.8459 4.52076C8.85019 4.44941 8.85502 4.37538 8.85931 4.29866V4.26541C8.97032 3.49015 8.92046 2.70033 8.71286 1.94517C8.54703 1.56663 8.30801 1.2246 8.00954 0.938752C7.76318 0.706923 7.4786 0.519443 7.16836 0.384584C6.75363 0.205255 6.30692 0.111642 5.85508 0.109375" fill="#005D45"/>
</g>
</g>
<defs>
<clipPath id="clip0_17_556">
<rect width="11.5" height="10.775" fill="white" transform="translate(0 0.117188)"/>
</clipPath>
<clipPath id="clip1_17_556">
<rect width="11.4933" height="10.775" fill="white" transform="translate(0.00390625 0.117188)"/>
</clipPath>
</defs>
</svg>
