<svg width="12" height="12" viewBox="0 0 12 12" fill="none" xmlns="http://www.w3.org/2000/svg">
<path d="M6.24594 0.38587C6.85982 0.376495 7.46919 0.38137 8.07819 0.376495C8.09844 1.13812 8.40744 1.82362 8.89907 2.33137L8.89832 2.33062C9.42744 2.80725 10.1159 3.11625 10.8749 3.16875L10.8854 3.1695V5.058C10.1684 5.04 9.49419 4.87462 8.88632 4.59037L8.91707 4.60312C8.62307 4.46175 8.37444 4.31662 8.13819 4.15462L8.15769 4.16737C8.15319 5.53575 8.16219 6.90412 8.14832 8.26762C8.10969 8.9625 7.87869 9.59624 7.50819 10.1254L7.51569 10.1137C6.89619 11.001 5.89269 11.5834 4.75157 11.6179H4.74632C4.70019 11.6201 4.64582 11.6212 4.59107 11.6212C3.94232 11.6212 3.33594 11.4405 2.81919 11.1266L2.83419 11.1352C1.89369 10.5694 1.24494 9.60112 1.12494 8.475L1.12344 8.45962C1.11407 8.22525 1.10957 7.99087 1.11894 7.76137C1.30269 5.96925 2.80419 4.58287 4.62932 4.58287C4.83444 4.58287 5.03544 4.6005 5.23082 4.63387L5.20982 4.63087C5.21919 5.32425 5.19107 6.018 5.19107 6.71137C5.03244 6.654 4.84944 6.62062 4.65857 6.62062C3.95807 6.62062 3.36219 7.06837 3.14169 7.6935L3.13832 7.70475C3.08844 7.86487 3.05957 8.049 3.05957 8.2395C3.05957 8.31675 3.06444 8.39325 3.07344 8.46825L3.07269 8.45925C3.19719 9.2265 3.85494 9.8055 4.64807 9.8055C4.67094 9.8055 4.69344 9.80512 4.71594 9.804H4.71257C5.26119 9.78749 5.73744 9.49237 6.00669 9.05625L6.01044 9.0495C6.11057 8.91 6.17919 8.74125 6.20207 8.55787L6.20244 8.55262C6.24932 7.71375 6.23057 6.87975 6.23507 6.04087C6.23957 4.15237 6.23057 2.26837 6.24444 0.384745L6.24594 0.38587Z" fill="#005D45"/>
</svg>
