<svg width="96" height="64" viewBox="0 0 96 64" fill="none" xmlns="http://www.w3.org/2000/svg">
<g id="Saudi_Vision_2030_logo 1" clip-path="url(#clip0_11_1607)">
<g id="Group">
<g id="Group_2">
<path id="Vector" d="M68.5391 36.3392V36.4091C68.5391 41.0255 65.1753 44.4178 59.7089 44.4178C55.294 44.4178 52.2455 42.6691 50.1434 40.1861L53.8577 36.6535C55.5394 38.5425 57.2915 39.5911 59.7793 39.5911C61.8115 39.5911 63.2482 38.4374 63.2482 36.6188C63.2212 36.5706 63.6445 33.4367 58.4476 33.4367H56.2052L55.3639 30.0088L63.2323 22.1091L60.0792 24.134H51.5802V19.5181H68.1534V23.5748L61.9518 29.4847C65.2804 30.0445 68.5391 31.7927 68.5391 36.3392ZM53.1567 8.32399C53.1567 6.10764 54.7487 4.32375 56.9829 4.32375H59.5006L58.8415 4.65208C58.8714 10.7269 58.721 11.4921 59.1096 12.3802L57.0109 12.3797C54.7767 12.3797 53.1567 10.5678 53.1567 8.35195V8.32399ZM56.9829 13.3975H59.2186V12.5937C59.3815 12.8763 59.6009 13.0956 59.9244 13.249C60.6355 13.5865 60.1187 13.3743 80.5128 13.437V3.30645H79.4372V12.3633C79.4372 12.3633 60.7893 12.4351 60.435 12.276C60.1274 12.1376 60.0155 11.8214 59.9644 11.4844C59.8829 10.9371 59.9326 10.927 59.9176 3.30645H57.0109C54.0366 3.30645 52.0117 5.66166 52.0117 8.35195V8.37992C52.0117 11.0697 54.0087 13.3975 56.9829 13.3975ZM88.4405 2.23227H86.0839C86.135 1.45314 85.7743 0 87.362 0H88.1209V0.748267C87.3861 0.802748 86.9633 0.569397 86.9633 1.15615V1.40445H88.4405V2.23227ZM91.1646 13.5464C90.8777 13.5464 90.586 13.5064 90.2905 13.4254L90.573 12.3922C91.0595 12.5306 91.6814 12.5388 91.9379 12.1039C92.2373 11.589 92.1303 11.4077 92.1462 3.30645H93.2218C93.191 10.8687 93.2961 11.0799 93.121 11.9564C92.9147 12.9819 92.2927 13.5464 91.1646 13.5464ZM59.9176 2.23227H58.8415V1.15856H59.9176V2.23227ZM83.5932 5.93696C84.098 4.9539 85.1577 4.40668 86.241 4.39511V4.39318H87.9791L87.3649 4.69933V9.52064C86.5183 9.49557 85.9233 9.60116 85.1394 9.35238C84.069 9.01585 83.3439 8.19237 83.3439 6.99717C83.3439 6.61291 83.4268 6.25902 83.5932 5.93696ZM83.5932 9.74194C84.9938 10.7399 86.9035 10.5751 87.0033 10.5939L87.3649 9.83644C87.3065 10.5707 87.5669 11.5967 86.8808 12.1106C86.3008 12.5441 85.2667 12.5301 84.6283 12.3787C84.3641 12.3165 84.0613 12.209 83.7205 12.0571L83.3844 13.0903C84.0661 13.3415 84.718 13.5464 85.4417 13.5464C86.4908 13.5464 87.2526 13.2981 87.7279 12.802C88.2028 12.3049 88.4405 11.6362 88.4405 10.7954V3.30645C87.1166 3.34792 86.1123 3.1729 84.9041 3.5885C81.6666 4.70174 81.602 8.32447 83.5932 9.74194ZM57.7659 2.23227H56.6898V1.15856H57.7659V2.23227ZM46.6311 3.29488H47.7419V13.3767H46.8326L39.6783 4.30832L40.3108 5.77786V13.3767H39.1995V3.29488H40.2674L47.0992 11.9684L46.6311 10.7313V3.29488ZM4.67653 13.4486L0.333008 3.29488H1.60294C1.66755 3.45109 5.12925 11.8185 5.48024 12.667L5.37031 11.5591L8.80357 3.29488H10.0296L5.68659 13.4486H4.67653ZM23.9246 3.29488H25.0644V13.3762H23.9246V3.29488ZM36.1505 8.36449C36.1505 10.6546 34.506 12.4978 32.197 12.4978C29.8881 12.4978 28.2142 10.6257 28.2142 8.33605V8.30663C28.2142 6.01699 29.8597 4.17381 32.1681 4.17381C34.477 4.17381 36.1505 6.04592 36.1505 8.33605V8.36449ZM32.197 3.12228C29.1235 3.12228 27.031 5.55608 27.031 8.33605V8.36449C27.031 11.144 29.0945 13.5493 32.1681 13.5493C35.2417 13.5493 37.3342 11.1155 37.3342 8.33605V8.30663C37.3342 5.52763 35.2706 3.12228 32.197 3.12228ZM22.0438 10.6401V10.6686C22.0438 12.3966 20.6008 13.5204 18.5952 13.5204C16.9935 13.5204 15.6807 12.9876 14.4686 11.9072L15.1754 11.0721C16.2289 12.0224 17.2389 12.4973 18.639 12.4973C19.9953 12.4973 20.8896 11.778 20.8896 10.7838V10.7554C20.8896 7.94166 14.8726 9.79787 14.8726 5.93021V5.90177C14.8726 4.31748 16.2723 3.15073 18.1916 3.15073C19.6631 3.15073 20.7165 3.56873 21.7411 4.3898L21.0777 5.26776C18.7875 3.40481 16.0124 4.11836 16.0124 5.801V5.82993C16.0124 6.78021 16.5316 7.31296 18.7543 7.78834C21.0053 8.27819 22.0438 9.09926 22.0438 10.6401ZM12.718 13.3767H11.5782V3.29537H12.718V13.3767ZM79.0616 14.5102H80.1377V15.5839H79.0616V14.5102ZM76.9099 14.5102H77.986V15.5839H76.9099V14.5102ZM9.35368 39.3462H18.7061V43.9983H0.55527V39.7314C9.62464 32.0347 12.9595 30.5305 12.9595 27.1768C12.9595 25.1132 11.5927 23.9942 9.66562 23.9942C7.77325 23.9942 6.4768 25.0428 4.65483 27.2809L0.870584 24.2391C3.28847 20.9515 5.63645 19.1676 10.0161 19.1676C15.0968 19.1676 18.4607 22.1404 18.4607 26.7221V26.7915C18.4607 32.5366 14.1113 34.3885 6.65326 40.3987L5.61186 41.201L9.35368 39.3462ZM90.3589 31.8279C90.3589 36.0243 87.3456 39.4518 83.0002 39.4518C78.6552 39.4518 75.572 35.9544 75.572 31.7575V31.6876C75.572 27.4911 78.5858 24.0641 82.9302 24.0641C87.2747 24.0641 90.3589 27.5615 90.3589 31.7575V31.8279ZM83.0002 19.0982C75.4321 19.0982 69.9305 24.7984 69.9305 31.7575V31.8279C69.9305 38.7874 75.3613 44.4178 82.9302 44.4178C90.4992 44.4178 95.9999 38.717 95.9999 31.7575V31.6876C95.9999 24.7285 90.5686 19.0982 83.0002 19.0982Z" fill="white"/>
<path id="Vector_2" d="M33.3686 17.4844L34.611 18.6743L33.4187 19.9138L32.1768 18.7239" fill="white"/>
<path id="Vector_3" d="M36.2119 18.7239L37.4534 19.9138L38.6457 18.6743L37.4037 17.4844" fill="white"/>
<path id="Vector_4" d="M34.4619 20.2934L35.4295 21.2195L36.3572 20.2543L35.3905 19.3281" fill="white"/>
<path id="Vector_5" d="M38.0088 20.8246L38.9759 21.7513L39.9036 20.786L38.9364 19.8594" fill="white"/>
<path id="Vector_6" d="M32.8799 21.7621L33.847 22.6888L34.7747 21.7235L33.8085 20.7969" fill="white"/>
<path id="Vector_7" d="M36.126 21.8793L37.0926 22.8059L38.0208 21.8407L37.0536 20.9141" fill="white"/>
<path id="Vector_8" d="M34.8564 22.9918L35.5367 23.6437L36.1895 22.9643L35.5092 22.3125" fill="white"/>
<path id="Vector_9" d="M37.4229 23.4992L38.1031 24.151L38.7564 23.4717L38.0761 22.8203" fill="white"/>
<path id="Vector_10" d="M43.0283 18.3359L45.1386 17.949L45.5249 20.0555L43.4146 20.4424L43.0283 18.3359Z" fill="white"/>
<path id="Vector_11" d="M40.2725 19.2188L41.9655 18.9087L42.275 20.599L40.5819 20.909L40.2725 19.2188Z" fill="white"/>
<path id="Vector_12" d="M43.5459 21.5703L45.2389 21.2599L45.5488 22.95L43.8558 23.2605L43.5459 21.5703Z" fill="white"/>
<path id="Vector_13" d="M41.2119 21.8203L42.5303 21.5788L42.7713 22.8943L41.4529 23.1358L41.2119 21.8203Z" fill="white"/>
<path id="Vector_14" d="M43.7764 24.3203L45.0947 24.0788L45.3359 25.3948L44.0175 25.6363L43.7764 24.3203Z" fill="white"/>
<path id="Vector_15" d="M39.2354 22.3594L40.5542 22.1177L40.7953 23.4338L39.4765 23.6754L39.2354 22.3594Z" fill="white"/>
<path id="Vector_16" d="M41.6299 24.0781L42.9483 23.8366L43.1894 25.1526L41.871 25.3941L41.6299 24.0781Z" fill="white"/>
<path id="Vector_17" d="M39.9482 24.2344L40.8758 24.0643L41.0456 24.99L40.118 25.1601L39.9482 24.2344Z" fill="white"/>
<path id="Vector_18" d="M41.7314 26.1562L42.6586 25.9867L42.8278 26.912L41.9006 27.0816L41.7314 26.1562Z" fill="white"/>
<path id="Vector_19" d="M49.3042 25.2344L48.3818 27.1687L50.32 28.0886L51.2414 26.1548" fill="white"/>
<path id="Vector_20" d="M46.5531 24.3438L45.8135 25.8952L47.3679 26.6334L48.1075 25.0819" fill="white"/>
<path id="Vector_21" d="M47.8265 28.1641L47.0869 29.716L48.6418 30.4537L49.3814 28.9022" fill="white"/>
<path id="Vector_22" d="M45.7895 27L45.2139 28.2082L46.4245 28.7829L47.0006 27.5747" fill="white"/>
<path id="Vector_23" d="M46.4033 30.5234L45.8271 31.7317L47.0373 32.3064L47.6139 31.0981" fill="white"/>
<path id="Vector_24" d="M43.872 26.2812L43.2959 27.4895L44.5065 28.0642L45.0827 26.856" fill="white"/>
<path id="Vector_25" d="M44.8037 29.0781L44.2275 30.2863L45.4377 30.861L46.0143 29.6528" fill="white"/>
<path id="Vector_26" d="M43.3479 28.2266L42.9424 29.0766L43.7938 29.4806L44.1993 28.6311" fill="white"/>
<path id="Vector_27" d="M43.2646 31.6641L43.669 30.8143L44.5202 31.2193L44.1158 32.0691L43.2646 31.6641Z" fill="white"/>
<path id="Vector_28" d="M50.349 34.5L48.4678 35.5298L49.5 37.4077L51.3813 36.3779" fill="white"/>
<path id="Vector_29" d="M48.6429 32.1641L47.1338 32.9904L47.9616 34.4966L49.4707 33.6702" fill="white"/>
<path id="Vector_30" d="M47.4324 36.0078L45.9229 36.8342L46.7512 38.3408L48.2602 37.5145" fill="white"/>
<path id="Vector_31" d="M46.463 33.875L45.2881 34.5186L45.9322 35.6912L47.1081 35.048" fill="white"/>
<path id="Vector_32" d="M44.8952 37.0938L43.7197 37.7374L44.3643 38.9099L45.5398 38.2668" fill="white"/>
<path id="Vector_33" d="M45.3307 32.1719L44.1553 32.815L44.7999 33.9885L45.9758 33.3449" fill="white"/>
<path id="Vector_34" d="M44.4479 34.9844L43.2725 35.628L43.9171 36.8006L45.0925 36.1574" fill="white"/>
<path id="Vector_35" d="M43.7653 33.4453L42.9385 33.898L43.3922 34.723L44.2185 34.2707" fill="white"/>
<path id="Vector_36" d="M42.5075 35.7344L41.6807 36.1871L42.1339 37.012L42.9607 36.5598" fill="white"/>
<path id="Vector_37" d="M43.3701 44.4688L43.6327 42.3428L45.7625 42.6059L45.4999 44.7318L43.3701 44.4688Z" fill="white"/>
<path id="Vector_38" d="M43.8311 41.2266L44.0424 39.5213L45.7505 39.733L45.5392 41.4383L43.8311 41.2266Z" fill="white"/>
<path id="Vector_39" d="M40.5967 43.6406L40.808 41.9354L42.5166 42.1471L42.3053 43.8524L40.5967 43.6406Z" fill="white"/>
<path id="Vector_40" d="M41.4873 41.0156L41.6515 39.6878L42.9817 39.8523L42.8175 41.1801L41.4873 41.0156Z" fill="white"/>
<path id="Vector_41" d="M38.3271 42.7031L38.4913 41.3753L39.8215 41.5398L39.6573 42.8676L38.3271 42.7031Z" fill="white"/>
<path id="Vector_42" d="M41.5654 38.9688L41.73 37.6405L43.0607 37.8054L42.8961 39.1337L41.5654 38.9688Z" fill="white"/>
<path id="Vector_43" d="M39.2021 40.7344L39.3667 39.4066L40.6973 39.5715L40.5328 40.8993L39.2021 40.7344Z" fill="white"/>
<path id="Vector_44" d="M39.9971 38.7422L40.1126 37.8082L41.0481 37.9239L40.9325 38.8579L39.9971 38.7422Z" fill="white"/>
<path id="Vector_45" d="M37.6318 39.8594L37.7473 38.9254L38.6832 39.0411L38.5678 39.9751L37.6318 39.8594Z" fill="white"/>
<path id="Vector_46" d="M37.2894 46.5278L35.7167 45.0703L34.2568 46.6401L35.8295 48.0971" fill="white"/>
<path id="Vector_47" d="M37.0004 16.5278L35.4277 15.0703L33.9678 16.6401L35.5405 18.0971" fill="white"/>
<path id="Vector_48" d="M38.967 44.177L37.7053 43.0078L36.5342 44.2671L37.7959 45.4358" fill="white"/>
<path id="Vector_49" d="M34.9343 44.2395L33.6721 43.0703L32.501 44.3296L33.7627 45.4983" fill="white"/>
<path id="Vector_50" d="M36.655 42.6525L35.6725 41.7422L34.7607 42.7224L35.7428 43.6326" fill="white"/>
<path id="Vector_51" d="M33.1018 42.1759L32.1197 41.2656L31.208 42.2458L32.1906 43.1565" fill="white"/>
<path id="Vector_52" d="M37.9168 41.0431L36.9342 40.1328L36.0225 41.113L37.0046 42.0232" fill="white"/>
<path id="Vector_53" d="M34.9656 41.09L33.983 40.1797L33.0713 41.1599L34.0534 42.0701" fill="white"/>
<path id="Vector_54" d="M36.2159 39.9611L35.525 39.3203L34.8838 40.0102L35.5747 40.6505" fill="white"/>
<path id="Vector_55" d="M33.6422 39.4918L32.9513 38.8516L32.3096 39.541L33.0005 40.1813" fill="white"/>
<path id="Vector_56" d="M25.5986 43.0703L27.7028 42.6486L28.1236 44.7485L26.0195 45.1702L25.5986 43.0703Z" fill="white"/>
<path id="Vector_57" d="M28.8369 42.4688L30.5246 42.1305L30.8622 43.8153L29.1746 44.1536L28.8369 42.4688Z" fill="white"/>
<path id="Vector_58" d="M25.5283 40.1719L27.2159 39.8333L27.5539 41.5181L25.8663 41.8566L25.5283 40.1719Z" fill="white"/>
<path id="Vector_59" d="M28.3037 40.1875L29.6179 39.9241L29.8808 41.2359L28.5666 41.4993L28.3037 40.1875Z" fill="white"/>
<path id="Vector_60" d="M30.2705 39.6172L31.5847 39.3538L31.8477 40.6661L30.5335 40.9295L30.2705 39.6172Z" fill="white"/>
<path id="Vector_61" d="M27.8486 37.9297L29.1628 37.6663L29.4257 38.9781L28.1115 39.2415L27.8486 37.9297Z" fill="white"/>
<path id="Vector_62" d="M29.9932 38.0625L30.9179 37.8775L31.1025 38.8003L30.1778 38.9853L29.9932 38.0625Z" fill="white"/>
<path id="Vector_63" d="M28.1807 36.1719L29.1048 35.9865L29.2899 36.9092L28.3658 37.0946L28.1807 36.1719Z" fill="white"/>
<path id="Vector_64" d="M21.7334 37.9462L22.6229 35.9975L20.6698 35.1094L19.7803 37.0581" fill="white"/>
<path id="Vector_65" d="M24.4995 38.7991L25.2131 37.2355L23.6467 36.5234L22.9326 38.087" fill="white"/>
<path id="Vector_66" d="M23.1631 34.9949L23.8772 33.4313L22.3102 32.7188L21.5967 34.2828" fill="white"/>
<path id="Vector_67" d="M23.999 35.5781L24.5544 34.3604L25.7734 34.9163L25.2181 36.1341L23.999 35.5781Z" fill="white"/>
<path id="Vector_68" d="M26.8516 39.1703L27.4075 37.9529L26.1877 37.3984L25.6318 38.6158" fill="white"/>
<path id="Vector_69" d="M23.3291 32.0625L23.8847 30.8449L25.1036 31.401L24.5481 32.6187L23.3291 32.0625Z" fill="white"/>
<path id="Vector_70" d="M25.9287 36.2656L26.4843 35.048L27.7032 35.6042L27.1477 36.8218L25.9287 36.2656Z" fill="white"/>
<path id="Vector_71" d="M24.9502 33.4844L25.5062 32.2669L26.7249 32.8235L26.169 34.041L24.9502 33.4844Z" fill="white"/>
<path id="Vector_72" d="M27.6404 34.864L28.0314 34.0077L27.1732 33.6172L26.7822 34.4739" fill="white"/>
<path id="Vector_73" d="M27.2752 32.278L27.6662 31.4213L26.808 31.0312L26.417 31.888" fill="white"/>
<path id="Vector_74" d="M20.5348 28.7103L22.3992 27.6496L21.3356 25.7891L19.4717 26.8498" fill="white"/>
<path id="Vector_75" d="M22.2816 31.0155L23.7772 30.1646L22.9238 28.6719L21.4287 29.5233" fill="white"/>
<path id="Vector_76" d="M23.4259 27.1488L24.9215 26.2978L24.0681 24.8047L22.573 25.6561" fill="white"/>
<path id="Vector_77" d="M24.431 29.2624L25.5948 28.5994L24.9309 27.4375L23.7666 28.0999" fill="white"/>
<path id="Vector_78" d="M25.9466 26.0202L27.1105 25.3572L26.4466 24.1953L25.2822 24.8578" fill="white"/>
<path id="Vector_79" d="M25.5907 30.9499L26.7555 30.2874L26.0916 29.125L24.9268 29.7879" fill="white"/>
<path id="Vector_80" d="M26.4285 28.1217L27.5929 27.4593L26.929 26.2969L25.7646 26.9598" fill="white"/>
<path id="Vector_81" d="M27.1361 29.6584L27.9553 29.1922L27.4881 28.375L26.6689 28.8407" fill="white"/>
<path id="Vector_82" d="M28.3549 27.3459L29.1745 26.8797L28.7073 26.0625L27.8877 26.5287" fill="white"/>
<path id="Vector_83" d="M24.9834 20.5156L25.2111 18.3861L27.3444 18.6142L27.1167 20.7437L24.9834 20.5156Z" fill="white"/>
<path id="Vector_84" d="M25.0479 23.3984L25.2306 21.6904L26.9425 21.8735L26.7598 23.5816L25.0479 23.3984Z" fill="white"/>
<path id="Vector_85" d="M28.2393 20.9375L28.4221 19.2289L30.134 19.4121L29.9512 21.1207L28.2393 20.9375Z" fill="white"/>
<path id="Vector_86" d="M27.8157 23.2419L27.9582 21.9116L29.2909 22.0544L29.1484 23.3847L27.8157 23.2419Z" fill="white"/>
<path id="Vector_87" d="M30.9424 21.4922L31.0843 20.1618L32.4171 20.304L32.2751 21.6344L30.9424 21.4922Z" fill="white"/>
<path id="Vector_88" d="M27.7686 25.2812L27.9111 23.9509L29.2438 24.0937L29.1013 25.424L27.7686 25.2812Z" fill="white"/>
<path id="Vector_89" d="M30.1045 23.4844L30.247 22.1541L31.5797 22.2968L31.4372 23.6271L30.1045 23.4844Z" fill="white"/>
<path id="Vector_90" d="M29.7803 25.1328L29.8804 24.197L30.8181 24.2974L30.718 25.2332L29.7803 25.1328Z" fill="white"/>
<path id="Vector_91" d="M32.126 23.9688L32.2255 23.0329L33.1638 23.1327L33.0642 24.0686L32.126 23.9688Z" fill="white"/>
<path id="Vector_92" d="M42.2495 32.8984C41.1262 32.2514 39.5631 32.0633 37.9436 32.6564C37.2359 32.9239 36.5271 33.3911 35.9293 33.8487C35.5527 31.5658 35.7364 29.4468 35.8242 28.4059C35.8247 28.4001 35.8314 28.3972 35.8367 28.4006C36.6453 28.9092 36.4187 30.3306 36.2489 30.737C36.2456 30.7452 36.2576 30.7505 36.2634 30.7438C37.2711 29.5539 36.7788 28.24 36.572 27.9074C36.5344 27.8471 36.7624 28.0298 36.9495 28.2695C37.6539 29.1662 37.3284 30.1734 37.407 30.1498C37.409 30.1493 37.4114 30.1498 37.4123 30.1474C37.8805 29.2289 37.73 28.0641 36.7672 27.2228C36.7234 27.1856 36.895 27.2416 36.9495 27.2608C37.7705 27.5458 38.1987 28.3914 38.1929 29.1455C38.1929 29.3113 38.7473 27.729 37.407 26.9248C37.1563 26.7749 36.8989 26.6924 36.7306 26.6722C36.5995 26.6582 37.4485 26.5304 38.0449 26.9344C38.4031 27.176 38.4971 27.4682 38.488 27.3862C38.3838 26.3269 37.1351 25.9085 36.3782 26.2262C36.2981 26.2662 36.6761 25.706 37.407 25.7494C37.5478 25.7576 37.678 25.7879 37.7821 25.8376C37.7894 25.841 37.7961 25.8313 37.7908 25.8251C37.2388 25.1939 36.3304 25.1809 35.8483 25.9109C35.8449 25.9157 35.8377 25.9157 35.8348 25.9109C35.6521 25.5835 35.4992 25.1645 35.4332 24.7692C35.4173 24.6679 35.3835 25.2585 35.0171 25.9109C35.0142 25.9157 35.0075 25.9157 35.0041 25.9109C34.5205 25.179 33.6131 25.1935 33.0616 25.8251C33.0558 25.8313 33.0625 25.841 33.0703 25.8376C33.4386 25.6626 34.1343 25.7142 34.4829 26.2141C34.4872 26.2209 34.481 26.2296 34.4733 26.2262C33.6932 25.8983 32.4676 26.3433 32.3639 27.3862C32.3634 27.3949 32.375 27.3997 32.3794 27.392C32.4141 27.3269 32.4999 27.188 32.6604 27.0473C33.2843 26.4976 34.2655 26.6567 34.1213 26.6722C33.738 26.7194 32.9512 27.0608 32.6604 27.8408C32.4228 28.4782 32.6518 29.3176 32.6604 29.1098C32.6682 28.4006 33.0746 27.4508 34.0779 27.2088C34.0856 27.2068 34.0914 27.2174 34.0851 27.2228C32.5259 28.5934 33.469 30.2766 33.4545 30.1435C33.4063 29.6001 33.3663 28.6301 34.2674 27.8977C34.2741 27.8924 34.2847 27.8997 34.2799 27.9074C34.0731 28.24 33.5813 29.5539 34.5885 30.7438C34.5943 30.7505 34.6063 30.7452 34.6029 30.737C34.4337 30.3306 34.2071 28.9092 35.0152 28.4006C35.0205 28.3972 35.0272 28.4001 35.0277 28.4059C35.1159 29.4468 35.2996 31.5658 34.9226 33.8487C33.6421 32.87 32.3813 32.2282 30.7575 32.2996C29.9407 32.3353 29.166 32.573 28.6023 32.8984C28.5821 32.91 28.597 32.9394 28.6187 32.9326C30.9807 32.1776 33.0249 33.0937 34.9255 34.675C33.9656 35.5115 33.0944 36.3871 32.5881 36.6513C32.47 36.4898 32.2651 36.3967 32.0409 36.4454C31.6186 36.5385 31.5178 37.0674 31.7468 37.2949C32.5766 38.1228 33.874 36.4801 35.4259 35.107C36.9196 36.4271 38.2768 38.1223 39.1051 37.2949C39.1711 37.2289 39.2478 37.011 39.2083 36.8379C39.1085 36.4059 38.5342 36.281 38.2638 36.6513C37.7768 36.4059 36.922 35.5419 35.9264 34.675C37.8405 33.0797 39.8625 32.1892 42.2327 32.9326C42.2548 32.9394 42.2698 32.91 42.2495 32.8984Z" fill="white"/>
<path id="Vector_93" d="M34.6924 55.498H35.3081V49.9844H34.6924V55.498ZM18.5598 54.8833L17.598 52.5252C18.5931 51.6829 19.8278 51.8377 20.6224 52.5252L19.6605 54.8833H18.5598ZM15.1656 54.8833C14.6816 54.8688 14.3412 54.9291 13.8918 54.7878C12.228 54.2623 12.6802 51.9491 14.5422 51.9491H15.1656V54.8833ZM32.2832 54.8833C31.2914 54.8529 30.3981 55.0583 29.9434 54.2691C30.0331 53.8747 29.9839 53.5208 29.9974 51.7109H29.3817V53.7927C29.3817 55.3206 27.5381 55.2213 27.1032 54.3038C26.9286 53.935 27.0352 53.7807 27.0034 51.7109H26.3872V53.839C26.3872 54.5333 25.9528 54.8833 25.3482 54.8833H24.1554V51.7109H23.5397V54.8833H20.3071L21.3846 52.3102C20.7733 51.776 19.9223 51.2731 19.1066 51.2731C18.2778 51.2731 17.4432 51.7543 16.828 52.3102L17.9133 54.8833H15.7813V51.3271H14.7963C13.4039 51.3271 12.2482 52.1274 12.2482 53.4393C12.2482 55.7743 15.1126 55.4865 15.1656 55.498C15.156 55.5737 15.2423 56.1012 14.8884 56.3663C14.5576 56.6142 13.967 56.6069 13.5992 56.5201C13.4478 56.484 13.2747 56.4228 13.0799 56.3355L12.8875 56.9271C13.2781 57.0707 13.6508 57.1884 14.0649 57.1884C15.2384 57.1884 15.7813 56.6031 15.7813 55.6133V55.498C25.8299 55.4349 25.5329 55.6427 26.1452 55.3061C26.3785 55.1784 26.567 55.0067 26.7107 54.7912C26.8597 55.0371 27.0622 55.2295 27.3187 55.3678C27.8572 55.6566 28.6788 55.6297 29.1778 55.3828C29.4367 55.255 29.6358 55.0578 29.7742 54.7912C30.0119 55.1972 30.3807 55.458 31.1213 55.4908V55.498H32.8989V49.9844H32.2832V54.8833ZM87.5306 54.6109C86.9858 55.8842 85.1103 55.9209 84.5674 54.5916C84.4078 54.2016 84.4078 53.7392 84.5674 53.3434C85.2246 51.7147 87.6579 52.1824 87.6579 53.9697C87.6579 54.1996 87.6154 54.4137 87.5306 54.6109ZM81.5579 54.6109C81.0869 55.7053 79.6675 55.8673 78.9255 55.1027C78.3166 54.473 78.3344 53.4475 78.9221 52.8289C79.4009 52.3203 80.139 52.2383 80.7036 52.4712C81.5936 52.8424 81.8901 53.839 81.5579 54.6109ZM66.5839 54.8833C66.1129 54.8688 65.7715 54.9306 65.3251 54.784C63.7037 54.2512 64.0903 51.9413 65.9755 51.9413H66.5839V54.8833ZM90.1973 54.8833H88.0812C88.7417 53.4335 87.7157 51.734 86.0259 51.734C84.4695 51.734 83.3809 53.3289 84.0168 54.8833H82.1081C82.7517 53.476 81.7764 51.734 80.0532 51.734C78.4959 51.734 77.4082 53.3294 78.0442 54.8833H76.0891V49.9844H75.4735V54.8833H73.5112C73.4774 54.2522 73.6544 53.3183 73.126 52.7287C72.7677 52.3246 72.369 52.1988 71.8252 52.1988H69.1006L70.2597 49.9844H69.59L68.4078 52.1911C68.4459 52.436 68.5202 52.6274 68.6851 52.813C71.7644 52.8391 71.9655 52.7484 72.3295 52.9018C72.6149 53.0199 72.7889 53.2354 72.8492 53.4972C72.9225 53.8125 72.8854 54.0497 72.8955 54.8833H67.1996V51.3271H66.2296C64.598 51.3271 63.6897 52.2976 63.6897 53.4162C63.6897 54.8177 64.8169 55.498 66.2296 55.498H78.4443C79.3503 56.4739 80.8753 56.3909 81.7079 55.498H84.417C85.32 56.471 86.8436 56.3943 87.681 55.498H90.8134V49.9844H90.1973V54.8833ZM92.6065 55.498H93.2221V49.9844H92.6065V55.498ZM47.2389 56.8509H47.8715V56.2198H47.2389V56.8509ZM53.2588 54.8833L52.2965 52.5252C53.2839 51.6892 54.5167 51.8305 55.3213 52.5252L54.3595 54.8833H53.2588ZM57.6226 54.8833H55.006L56.0831 52.3102C55.4703 51.7731 54.6165 51.2731 53.805 51.2731C52.9734 51.2731 52.1412 51.7567 51.5265 52.3102L52.6118 54.8833H50.3187V51.3271H49.7026V55.6287C49.7026 56.172 49.663 56.5737 49.1178 56.5737C48.991 56.5737 48.9239 56.5626 48.8024 56.5274L48.6409 57.1194C49.1554 57.2602 49.7629 57.213 50.0647 56.7694C50.3376 56.3678 50.3052 55.8133 50.3187 55.498H58.2387V49.9844H57.6226V54.8833ZM10.8785 51.8647C10.1939 51.1174 9.40125 51.3883 9.13126 51.3271V51.9413C9.5806 51.9587 9.7884 51.8917 10.0931 52.0373C10.3496 52.1607 10.5309 52.3598 10.6051 52.6404C10.6885 52.963 10.6418 53.2147 10.6553 54.8833H7.76876V55.498H11.271C11.2454 53.1693 11.3346 52.9225 11.1745 52.4023C11.1104 52.1925 11.0116 52.0132 10.8785 51.8647ZM44.9878 56.8581H45.6204V56.227H44.9878V56.8581ZM41.2441 54.8833C40.774 54.8688 40.4322 54.9306 39.9852 54.784C38.3619 54.2508 38.7529 51.9413 40.6356 51.9413H41.2441V54.8833ZM47.8633 51.3271H47.2476V54.8833H44.9232V51.3271H44.3075V54.8833H41.8598V51.3271C41.0855 51.3512 39.9303 51.1704 39.0427 51.9221C37.7843 52.9881 38.1088 55.498 40.8902 55.498H47.8633V51.3271ZM43.9093 56.8581H44.5419V56.227H43.9093V56.8581ZM2.76183 49.9844H2.12927V50.6155H2.76183V49.9844ZM66.1182 49.9844H65.4856V50.6155H66.1182V49.9844ZM41.8569 49.9844H41.2243V50.6155H41.8569V49.9844ZM6.3942 56.8581H7.02676V56.227H6.3942V56.8581ZM40.7783 49.9844H40.1458V50.6155H40.7783V49.9844ZM3.84035 49.9844H3.2078V50.6155H3.84035V49.9844ZM5.31567 56.8581H5.94823V56.227H5.31567V56.8581ZM3.22756 54.8833C2.75845 54.8688 2.41469 54.9306 1.9692 54.784C0.34876 54.2527 0.731572 51.9413 2.6196 51.9413H3.22756V54.8833ZM6.90671 51.3271H6.29102V54.8833H3.84325V51.3271C3.1051 51.3498 2.51835 51.2533 1.82649 51.4843C1.24649 51.6791 0.772553 52.0373 0.51413 52.5869C0.245101 53.1587 0.293797 53.8867 0.541612 54.3534C0.987583 55.1952 1.92051 55.498 2.8732 55.498H6.90671V51.3271ZM60.0318 55.498H60.6474V49.9844H60.0318V55.498ZM67.1962 49.9844H66.5637V50.6155H67.1962V49.9844Z" fill="white"/>
<path id="Vector_94" d="M0.936523 59.5312H1.70938V61.7384L3.80135 59.5312H4.75018L2.92194 61.4188L4.83166 63.9206H3.89584L2.39449 61.9453L1.70938 62.6477V63.9206H0.936523" fill="white"/>
<path id="Vector_95" d="M5.53613 59.5312H6.30899V63.9206H5.53613V59.5312Z" fill="white"/>
<path id="Vector_96" d="M7.49902 59.5312H8.21547L10.5716 62.5663V59.5312H11.3315V63.9206H10.6845L8.25934 60.7978V63.9206H7.49902" fill="white"/>
<path id="Vector_97" d="M12.2881 61.7438V61.7313C12.2881 60.5023 13.2307 59.4609 14.556 59.4609C15.3226 59.4609 15.7941 59.6745 16.2464 60.0569L15.7565 60.6402C14.5657 59.6287 13.099 60.3572 13.099 61.7188V61.7313C13.099 62.6343 13.6954 63.2987 14.5936 63.2987C15.0088 63.2987 15.3858 63.1671 15.6558 62.9665V62.145H14.531V61.4743H16.4036V63.3175C14.8308 64.6612 12.2881 63.9708 12.2881 61.7438Z" fill="white"/>
<path id="Vector_98" d="M19.1114 63.2181C21.1624 63.2181 21.1378 60.2332 19.1114 60.2332H18.2445V63.2181H19.1114ZM17.4717 59.5312H19.1114C22.2491 59.5312 22.2067 63.9206 19.1114 63.9206H17.4717V59.5312Z" fill="white"/>
<path id="Vector_99" d="M25.9614 61.7438V61.7313C25.9614 60.8784 25.3395 60.1701 24.4659 60.1701C23.5927 60.1701 22.9833 60.8659 22.9833 61.7188V61.7313C22.9833 62.5842 23.6053 63.2929 24.4784 63.2929C25.352 63.2929 25.9614 62.5967 25.9614 61.7438ZM22.1729 61.7438V61.7313C22.1729 60.4961 23.128 59.4609 24.4784 59.4609C25.8293 59.4609 26.7719 60.4835 26.7719 61.7188V61.7313C26.7719 62.9665 25.8173 64.0012 24.4659 64.0012C23.1154 64.0012 22.1729 62.979 22.1729 61.7438Z" fill="white"/>
<path id="Vector_100" d="M27.7314 59.5312H28.5544L29.8928 61.6068L31.2308 59.5312H32.0538V63.9206H31.2809V60.7727L29.8928 62.842H29.8678L28.4918 60.7853V63.9206H27.7314" fill="white"/>
<path id="Vector_101" d="M38.6665 61.7438V61.7313C38.6665 60.8784 38.0446 60.1701 37.1709 60.1701C36.2978 60.1701 35.6884 60.8659 35.6884 61.7188V61.7313C35.6884 62.5842 36.3103 63.2929 37.1835 63.2929C38.0571 63.2929 38.6665 62.5967 38.6665 61.7438ZM34.8779 61.7438V61.7313C34.8779 60.4961 35.833 59.4609 37.1835 59.4609C38.5344 59.4609 39.477 60.4835 39.477 61.7188V61.7313C39.477 62.9665 38.5219 64.0012 37.1709 64.0012C35.8205 64.0012 34.8779 62.979 34.8779 61.7438Z" fill="white"/>
<path id="Vector_102" d="M40.4365 59.5312H43.7097V60.2337H41.2094V61.4313H43.4272V62.1333H41.2094V63.9206H40.4365" fill="white"/>
<path id="Vector_103" d="M46.1494 63.2833L46.6142 62.7313C47.0351 63.0953 47.456 63.3021 48.0027 63.3021C48.48 63.3021 48.7818 63.0828 48.7818 62.7501V62.738C48.7818 61.7574 46.3249 62.4266 46.3249 60.756V60.7435C46.3249 59.3964 48.2105 59.0526 49.4226 60.0227L49.008 60.6056C47.9965 59.853 47.0982 60.149 47.0982 60.675V60.6875C47.0982 61.6542 49.5547 61.0429 49.5547 62.6623V62.6749C49.5547 64.2138 47.3726 64.3725 46.1494 63.2833Z" fill="white"/>
<path id="Vector_104" d="M53.0286 62.1778L52.2683 60.4218L51.5142 62.1778H53.0286ZM51.9226 59.5H52.6385L54.5738 63.9207H53.7571L53.3111 62.8609H51.2312L50.7794 63.9207H49.9873L51.9226 59.5Z" fill="white"/>
<path id="Vector_105" d="M55.0283 62.0586V59.5312H55.8012V62.0272C55.8012 62.8425 56.2221 63.2813 56.913 63.2813C57.5981 63.2813 58.019 62.8676 58.019 62.0586V59.5312H58.7918V62.021C58.7918 63.3314 58.0503 63.99 56.9004 63.99C55.7568 63.99 55.0283 63.3314 55.0283 62.0586Z" fill="white"/>
<path id="Vector_106" d="M61.5626 63.2181C63.6136 63.2181 63.5895 60.2332 61.5626 60.2332H60.6957V63.2181H61.5626ZM59.9229 59.5312H61.5626C64.7003 59.5312 64.6579 63.9206 61.5626 63.9206H59.9229V59.5312Z" fill="white"/>
<path id="Vector_107" d="M64.8779 59.5312H65.6508V63.9206H64.8779V59.5312Z" fill="white"/>
<path id="Vector_108" d="M71.3762 62.1856L70.6159 60.4296L69.8619 62.1856H71.3762ZM70.2702 59.5078H70.9862L72.9215 63.9285H72.1047L71.6588 62.8687H69.5789L69.1271 63.9285H68.335L70.2702 59.5078Z" fill="white"/>
<path id="Vector_109" d="M75.5548 61.7071C76.1078 61.7071 76.4598 61.4188 76.4598 60.9733V60.9608C76.4598 60.4907 76.1204 60.2332 75.5486 60.2332H74.4242V61.7071H75.5548ZM73.6514 59.5312H75.6112C76.5408 59.5312 77.2452 59.9984 77.2452 60.9169C77.2273 60.9651 77.3368 61.9332 76.1956 62.2591L77.3831 63.9206H76.4718L75.3914 62.3903C75.307 62.3903 74.3746 62.3903 74.4242 62.3903V63.9206H73.6514V59.5312Z" fill="white"/>
<path id="Vector_110" d="M80.9934 62.1856L80.2331 60.4296L79.4791 62.1856H80.9934ZM79.8874 59.5078H80.6039L82.5387 63.9285H81.7219L81.276 62.8687H79.196L78.7443 63.9285H77.9521L79.8874 59.5078Z" fill="white"/>
<path id="Vector_111" d="M85.3104 63.2374C85.8383 63.2374 86.1584 63.0301 86.1584 62.6352V62.6227C86.1584 62.2529 85.8634 62.033 85.254 62.033H84.0289V63.2374H85.3104ZM85.0843 61.3812C85.5804 61.3812 85.9135 61.1869 85.9135 60.7853V60.7727C85.9135 60.428 85.6373 60.2149 85.1407 60.2149H84.0289V61.3812H85.0843ZM83.2686 59.5312H85.2414C86.0148 59.5312 86.6864 59.8928 86.6864 60.6474C86.6685 60.6956 86.7654 61.2713 86.0582 61.6382C86.5736 61.8137 86.9313 62.1087 86.9313 62.7042V62.7167C86.9313 63.5006 86.2843 63.9206 85.3041 63.9206H83.2686V59.5312Z" fill="white"/>
<path id="Vector_112" d="M87.8877 59.5312H88.6605V63.9206H87.8877V59.5312Z" fill="white"/>
<path id="Vector_113" d="M92.4407 62.1778L91.6804 60.4218L90.9263 62.1778H92.4407ZM91.3347 59.5H92.0506L93.9859 63.9207H93.1692L92.7232 62.8609H90.6433L90.1916 63.9207H89.3994L91.3347 59.5Z" fill="white"/>
</g>
</g>
</g>
<defs>
<clipPath id="clip0_11_1607">
<rect width="95.6668" height="64" fill="white" transform="translate(0.333008)"/>
</clipPath>
</defs>
</svg>
