<svg width="16" height="16" viewBox="0 0 16 16" fill="none" xmlns="http://www.w3.org/2000/svg">
<g clip-path="url(#clip0_83_51)">
<path d="M8.00058 0C3.58925 0 0.000583135 3.58867 0.000583135 8C0.000583135 9.54067 0.436583 11.0287 1.26458 12.3173L0.0225831 15.5467C-0.0240835 15.6687 0.00458313 15.806 0.0952498 15.8993C0.15925 15.9647 0.24525 16 0.333916 16C0.371916 16 0.40925 15.994 0.445916 15.9807L3.77858 14.7907C5.04792 15.5827 6.50458 16 8.00058 16C12.4119 16 16.0006 12.4113 16.0006 8C16.0006 3.58867 12.4119 0 8.00058 0ZM12.0006 10.3333C12.0006 11.0833 11.0773 12 10.0006 12C8.95325 12 6.94258 10.7473 6.09792 9.90267C5.25325 9.05733 4.00058 7.04667 4.00058 6C4.00058 4.92267 4.91725 4 5.66725 4H6.33392C6.46058 4 6.57658 4.072 6.63258 4.186C6.63258 4.186 7.03458 5.00267 7.29725 5.51467C7.59325 6.09267 7.03658 6.77267 6.71992 7.09333C6.83325 7.384 7.09792 7.96 7.56925 8.43133C8.04058 8.90267 8.61658 9.168 8.90725 9.28067C9.22725 8.96333 9.90725 8.406 10.4859 8.70333C10.9979 8.96667 11.8139 9.36733 11.8139 9.36733C11.9286 9.42333 12.0006 9.54 12.0006 9.66667V10.3333Z" fill="#005D45" fill-opacity="0.7"/>
</g>
<defs>
<clipPath id="clip0_83_51">
<rect width="16" height="16" fill="white"/>
</clipPath>
</defs>
</svg>
