<svg width="42" height="42" viewBox="0 0 42 42" fill="none" xmlns="http://www.w3.org/2000/svg">
<rect width="42" height="42" rx="21" fill="#005D45"/>
<path d="M11.6711 16.8232C12.0273 16.8232 12.38 16.8934 12.7091 17.0297C13.0382 17.1661 13.3372 17.366 13.589 17.618C13.8408 17.8699 14.0405 18.169 14.1767 18.4982C14.3129 18.8274 14.3829 19.1802 14.3826 19.5364V23.6728H27.6155V19.5347C27.6158 19.0258 27.7593 18.5273 28.0296 18.0961C28.2999 17.665 28.6861 17.3186 29.144 17.0965C29.6019 16.8745 30.113 16.7858 30.619 16.8406C31.1249 16.8954 31.6052 17.0914 32.005 17.4063C32.4047 17.7212 32.7078 18.1423 32.8795 18.6213C33.0513 19.1004 33.0848 19.6181 32.9761 20.1152C32.8675 20.6124 32.6212 21.0689 32.2653 21.4327C31.9094 21.7965 31.4583 22.0527 30.9637 22.1722V29.9768C30.9632 30.1889 30.8788 30.3921 30.7289 30.542C30.5789 30.692 30.3757 30.7764 30.1637 30.7768H11.8361C11.6241 30.7764 11.4208 30.692 11.2709 30.542C11.121 30.3921 11.0366 30.1889 11.0361 29.9768V22.1722C10.3897 22.0179 9.82243 21.6316 9.44209 21.0866C9.06174 20.5416 8.89478 19.8759 8.97291 19.2159C9.05105 18.556 9.36883 17.9477 9.86592 17.5066C10.363 17.0655 11.0065 16.8223 11.6711 16.8232ZM13.4546 15.3175C13.3294 15.2646 13.2018 15.2174 13.0723 15.176V12.8636C13.0732 12.3691 13.2698 11.895 13.6192 11.545C13.9685 11.195 14.4422 10.9976 14.9367 10.9958H27.0597C27.5545 10.9971 28.0286 11.1944 28.3783 11.5444C28.7281 11.8945 28.9249 12.3688 28.9258 12.8636V15.176C28.7963 15.2174 28.6687 15.2646 28.5435 15.3175C27.7141 15.6677 27.0065 16.2548 26.5092 17.0052C26.0119 17.7557 25.747 18.6362 25.7477 19.5364V21.8051H16.2504V19.5364C16.2504 18.6363 15.9853 17.7561 15.4881 17.0058C14.9908 16.2555 14.2836 15.6683 13.4546 15.3175Z" fill="white"/>
</svg>
